<?xml version="1.0" standalone="no"?>
<!DOCTYPE svg PUBLIC "-//W3C//DTD SVG 20010904//EN"
 "http://www.w3.org/TR/2001/REC-SVG-20010904/DTD/svg10.dtd">
<svg version="1.0" xmlns="http://www.w3.org/2000/svg"
 width="100.000000pt" height="100.000000pt" viewBox="0 0 100.000000 100.000000"
 preserveAspectRatio="xMidYMid meet">
<metadata>
Created by potrace 1.11, written by Peter Selinger 2001-2013
</metadata>
<g transform="translate(0.000000,100.000000) scale(0.100000,-0.100000)"
fill="#000000" stroke="none">
<path d="M0 500 l0 -500 500 0 500 0 0 500 0 500 -500 0 -500 0 0 -500z m560
305 c0 -8 7 -15 15 -15 8 0 15 -7 15 -15 0 -8 7 -15 15 -15 12 0 15 -14 15
-70 0 -56 -3 -70 -15 -70 -10 0 -15 -10 -15 -30 l0 -30 -75 0 -75 0 0 45 c0
33 -4 45 -15 45 -12 0 -15 13 -15 55 0 42 3 55 15 55 8 0 15 7 15 15 0 8 7 15
15 15 8 0 15 7 15 15 0 11 12 15 45 15 33 0 45 -4 45 -15z m-120 -290 c0 -8 7
-15 15 -15 8 0 15 -7 15 -15 0 -11 12 -15 45 -15 33 0 45 4 45 15 0 8 7 15 15
15 8 0 15 7 15 15 0 11 12 15 45 15 33 0 45 -4 45 -15 0 -10 10 -15 30 -15 27
0 30 -3 30 -30 0 -16 5 -30 10 -30 6 0 10 -7 10 -15 0 -8 7 -15 15 -15 12 0
15 -15 15 -75 0 -73 -1 -75 -25 -75 -14 0 -25 -4 -25 -10 0 -6 -77 -10 -210
-10 -133 0 -210 4 -210 10 0 6 -13 10 -30 10 l-30 0 0 90 c0 73 3 90 15 90 8
0 15 7 15 15 0 8 7 15 15 15 8 0 15 7 15 15 0 8 7 15 15 15 8 0 15 7 15 15 0
11 12 15 45 15 33 0 45 -4 45 -15z"/>
</g>
</svg>
